D:\school\WTK\thesis\model\3dpredictsim\Results\batch_windlass\Pog_s1_tmt_aCst_d00_k500_WL10_ig24_act_TTC_GRF.mot
nRows=15
nColumns=19

name D:\school\WTK\thesis\model\3dpredictsim\Results\batch_windlass\Pog_s1_tmt_aCst_d00_k500_WL10_ig24_act_TTC_GRF.mot
datacolumns 19
datarows 15
range 0.5705577604 0.7303139333
endheader
time 	ground_force_vx	ground_force_vy	ground_force_vz	ground_force_px	ground_force_py	ground_force_pz	1_ground_force_vx	1_ground_force_vy	1_ground_force_vz	1_ground_force_px	1_ground_force_py	1_ground_force_pz	ground_torque_x	ground_torque_y	ground_torque_z	1_ground_torque_x	1_ground_torque_y	1_ground_torque_z
        0.5705577604	       80.2562046693	      358.2954176209	        0.2026229365	        0.3484220526	        0.0000000000	        0.0326333496	      -53.3434194891	       42.3769583255	       -8.2377697271	        0.8681405861	        0.0000000000	       -0.0707035043	        0.0000000000	        0.0000000000	        0.0000000000	        0.0000000000	        0.0000000000	        0.0000000000	
        0.5819689156	       50.2375126318	      252.6092551290	       10.2781601053	        0.3600430833	        0.0000000000	        0.0272240109	     -142.8688944013	      142.8363834463	      -29.6196423717	        0.8830893699	        0.0000000000	       -0.0705238962	        0.0000000000	        0.0000000000	        0.0000000000	        0.0000000000	        0.0000000000	        0.0000000000	
        0.5933800708	       33.2958521468	      205.4413070687	       22.5636849035	        0.3651598202	        0.0000000000	        0.0249344847	      -82.1559186352	      390.9470448941	       -5.8098150835	        0.8944604047	        0.0000000000	       -0.0689079244	        0.0000000000	        0.0000000000	        0.0000000000	        0.0000000000	        0.0000000000	        0.0000000000	
        0.6047912260	       30.0121236672	      171.8063505026	       23.0594260326	        0.3653084581	        0.0000000000	        0.0249467455	     -122.3324167866	      719.5811759789	       17.0996065190	        0.9069220791	        0.0000000000	       -0.0663010338	        0.0000000000	        0.0000000000	        0.0000000000	        0.0000000000	        0.0000000000	        0.0000000000	
        0.6162023812	       20.4294554788	      127.3458780917	       21.4163444019	        0.3652847595	        0.0000000000	        0.0249433661	     -144.9073917213	      902.4406647180	       22.9314210254	        0.9141680728	        0.0000000000	       -0.0644209103	        0.0000000000	        0.0000000000	        0.0000000000	        0.0000000000	        0.0000000000	        0.0000000000	
        0.6276135364	        3.0921719055	       70.6186861726	       17.9669824860	        0.3644830752	        0.0000000000	        0.0252234736	     -151.6692894219	      918.3990920589	       22.1733904712	        0.9183675623	        0.0000000000	       -0.0630874044	        0.0000000000	        0.0000000000	        0.0000000000	        0.0000000000	        0.0000000000	        0.0000000000	
        0.6390246916	       -5.1076439595	       10.0449278711	        2.8214990718	        0.3612099906	        0.0000000000	        0.0244926801	     -135.3280892807	      873.8100137589	       21.9248134071	        0.9209855423	        0.0000000000	       -0.0622991014	        0.0000000000	        0.0000000000	        0.0000000000	        0.0000000000	        0.0000000000	        0.0000000000	
        0.6504358468	       -1.0017434313	        0.8595049475	       -0.0281599206	        0.0000000000	        0.0000000000	        0.0000000000	     -119.1813608312	      820.5185274571	       21.3829993172	        0.9236966319	        0.0000000000	       -0.0617362088	        0.0000000000	        0.0000000000	        0.0000000000	        0.0000000000	        0.0000000000	        0.0000000000	
        0.6618470020	       -7.7954629387	        5.5984575634	       -0.5278948882	        0.0000000000	        0.0000000000	        0.0000000000	     -106.5742701210	      779.0550389114	       20.3529571066	        0.9263052707	        0.0000000000	       -0.0613453587	        0.0000000000	        0.0000000000	        0.0000000000	        0.0000000000	        0.0000000000	        0.0000000000	
        0.6732581572	       -6.5233057417	        4.0832537774	       -0.4778846900	        0.0000000000	        0.0000000000	        0.0000000000	      -93.3066291537	      749.8713042199	       20.2496313948	        0.9292920794	        0.0000000000	       -0.0609917180	        0.0000000000	        0.0000000000	        0.0000000000	        0.0000000000	        0.0000000000	        0.0000000000	
        0.6846693125	       -4.7687220028	        2.7023592379	       -0.3694409984	        0.0000000000	        0.0000000000	        0.0000000000	      -80.3450102436	      725.1238755154	       22.8137574986	        0.9337142598	        0.0000000000	       -0.0604566760	        0.0000000000	        0.0000000000	        0.0000000000	        0.0000000000	        0.0000000000	        0.0000000000	
        0.6960804677	       -3.6168094954	        1.8904753653	       -0.3085988838	        0.0000000000	        0.0000000000	        0.0000000000	      -70.6294520253	      700.9435258865	       24.4034186038	        0.9396293113	        0.0000000000	       -0.0597013175	        0.0000000000	        0.0000000000	        0.0000000000	        0.0000000000	        0.0000000000	        0.0000000000	
        0.7074916229	       -3.2424147369	        1.5941524978	       -0.2806995619	        0.0000000000	        0.0000000000	        0.0000000000	      -63.3719452046	      679.6252269856	       23.9911536931	        0.9460324494	        0.0000000000	       -0.0588588444	        0.0000000000	        0.0000000000	        0.0000000000	        0.0000000000	        0.0000000000	        0.0000000000	
        0.7189027781	       -2.5711299923	        1.2112528580	       -0.2187021540	        0.0000000000	        0.0000000000	        0.0000000000	      -57.0494883075	      660.9594539968	       23.2028200845	        0.9524230468	        0.0000000000	       -0.0579809482	        0.0000000000	        0.0000000000	        0.0000000000	        0.0000000000	        0.0000000000	        0.0000000000	
        0.7303139333	       -1.9016026889	        0.8686713888	       -0.1549834914	        0.0000000000	        0.0000000000	        0.0000000000	      -51.5762228100	      644.1419793242	       22.3948217719	        0.9587279332	        0.0000000000	       -0.0570786386	        0.0000000000	        0.0000000000	        0.0000000000	        0.0000000000	        0.0000000000	        0.0000000000	
